<?xml version="1.0" encoding="utf-8"?>
<svg width="1080px" height="2160px" viewBox="0 0 1080 2160" version="1.1" xmlns:xlink="http://www.w3.org/1999/xlink" xmlns="http://www.w3.org/2000/svg">
  <desc>Created with Lunacy</desc>
  <defs>
    <linearGradient x1="0" y1="0" x2="1" y2="1" id="gradient_1">
      <stop offset="0" stop-color="#F385EB" stop-opacity="0.8980392" />
      <stop offset="0.659663856" stop-color="#802BB1" stop-opacity="0.8980392" />
    </linearGradient>
    <linearGradient x1="0" y1="0" x2="0.997354448" y2="0.985291839" id="gradient_2">
      <stop offset="0" stop-color="#F385EB" />
      <stop offset="0.420168072" stop-color="#802BB1" />
    </linearGradient>
    <rect width="1080" height="2160" id="artboard_1" />
    <clipPath id="clip_1">
      <use xlink:href="#artboard_1" clip-rule="evenodd" />
    </clipPath>
  </defs>
  <g id="Landing-page" clip-path="url(#clip_1)">
    <use xlink:href="#artboard_1" stroke="none" fill="#FFFFFF" />
    <path d="M3.00012 2153C3.00012 2153 1083 2185.07 1083 2160C1083 2107 1080 0 1080 0L0 0L3.00012 2153Z" transform="translate(-0.0001215935 0)" id="New-shape" fill="#303030" stroke="#808080" stroke-width="1" />
    <g id="Join-the-madness!" fill="#D1D7E0" fill-opacity="0.5686275" transform="translate(48.99988 597)">
      <path d="M137.273 48.8047L133.43 48.8047L133.43 34.9766Q133.43 27.4766 127.852 27.4766Q125.039 27.4766 123.117 29.6445Q121.195 31.8125 121.195 35.2109L121.195 48.8047L117.352 48.8047L117.352 13.2734L121.195 13.2734L121.195 28.7891L121.289 28.7891Q124.055 24.2422 129.164 24.2422Q137.273 24.2422 137.273 34.0156L137.273 48.8047ZM269.016 48.8047L265.172 48.8047L265.172 44.7266L265.078 44.7266Q262.406 49.3672 256.828 49.3672Q252.305 49.3672 249.598 46.1445Q246.891 42.9219 246.891 37.3672Q246.891 31.4141 249.891 27.8281Q252.891 24.2422 257.883 24.2422Q262.828 24.2422 265.078 28.1328L265.172 28.1328L265.172 13.2734L269.016 13.2734L269.016 48.8047ZM49.3594 18.0078Q50.0859 18.7109 51.1172 18.7109Q52.1719 18.7109 52.9102 17.9844Q53.6484 17.2578 53.6484 16.2266Q53.6484 15.1484 52.9102 14.4336Q52.1719 13.7188 51.1172 13.7188Q50.0859 13.7188 49.3594 14.4336Q48.6328 15.1484 48.6328 16.2266Q48.6328 17.3047 49.3594 18.0078ZM13.0078 36.7578Q13.0078 42.7344 10.4766 46.0508Q7.94531 49.3672 3.70313 49.3672Q1.73438 49.3672 0.46875 48.8047L0.46875 44.9141Q1.73438 45.8281 3.75 45.8281Q9.07031 45.8281 9.07031 36.8047L9.07031 15.1953L13.0078 15.1953L13.0078 36.7578ZM374.25 39.3359L374.695 15.1953L370.664 15.1953L371.086 39.3359L374.25 39.3359ZM108.633 49.3203Q110.859 49.3203 112.219 48.5703L112.219 45.2891Q111.164 46.0859 109.711 46.0859Q107.813 46.0859 106.992 45.0547Q106.172 44.0234 106.172 41.6094L106.172 28.0859L112.219 28.0859L112.219 24.8047L106.172 24.8047L106.172 17.7031L102.328 18.9453L102.328 24.8047L98.2031 24.8047L98.2031 28.0859L102.328 28.0859L102.328 42.2891Q102.328 49.3203 108.633 49.3203ZM31.0547 49.3672Q25.7344 49.3672 22.5586 46.0039Q19.3828 42.6406 19.3828 37.0859Q19.3828 31.0391 22.6875 27.6406Q25.9922 24.2422 31.6172 24.2422Q36.9844 24.2422 39.9961 27.5469Q43.0078 30.8516 43.0078 36.7109Q43.0078 42.4531 39.7617 45.9102Q36.5156 49.3672 31.0547 49.3672ZM80.6953 48.8047L76.8516 48.8047L76.8516 35.1172Q76.8516 27.4766 71.2734 27.4766Q68.3906 27.4766 66.5039 29.6445Q64.6172 31.8125 64.6172 35.1172L64.6172 48.8047L60.7734 48.8047L60.7734 24.8047L64.6172 24.8047L64.6172 28.7891L64.7109 28.7891Q67.4297 24.2422 72.5859 24.2422Q76.5234 24.2422 78.6094 26.7852Q80.6953 29.3281 80.6953 34.1328L80.6953 48.8047ZM146.859 37.7656L163.805 37.7656L163.805 35.75Q163.805 30.3359 161.227 27.2891Q158.648 24.2422 153.938 24.2422Q149.227 24.2422 146.051 27.7695Q142.875 31.2969 142.875 36.8984Q142.875 42.8281 145.781 46.0977Q148.688 49.3672 153.773 49.3672Q158.977 49.3672 162.141 47.0703L162.141 43.4609Q158.742 46.1328 154.688 46.1328Q151.078 46.1328 149.016 43.9531Q146.953 41.7734 146.859 37.7656ZM216.844 48.8047L213 48.8047L213 35.0234Q213 31.0391 211.77 29.2578Q210.539 27.4766 207.633 27.4766Q205.172 27.4766 203.449 29.7266Q201.727 31.9766 201.727 35.1172L201.727 48.8047L197.883 48.8047L197.883 34.5547Q197.883 27.4766 192.422 27.4766Q189.891 27.4766 188.25 29.5977Q186.609 31.7188 186.609 35.1172L186.609 48.8047L182.766 48.8047L182.766 24.8047L186.609 24.8047L186.609 28.6016L186.703 28.6016Q189.258 24.2422 194.156 24.2422Q196.617 24.2422 198.445 25.6133Q200.273 26.9844 200.953 29.2109Q203.625 24.2422 208.922 24.2422Q216.844 24.2422 216.844 34.0156L216.844 48.8047ZM237.445 48.8047L241.289 48.8047L241.289 33.1953Q241.289 24.2422 232.828 24.2422Q228.211 24.2422 224.672 26.4922L224.672 30.4297Q228.164 27.4766 232.5 27.4766Q237.445 27.4766 237.445 33.5938L230.25 34.6016Q222.328 35.7031 222.328 42.4297Q222.328 45.5703 224.355 47.4688Q226.383 49.3672 229.969 49.3672Q234.844 49.3672 237.352 45.0547L237.445 45.0547L237.445 48.8047ZM292.875 48.8047L296.719 48.8047L296.719 34.1328Q296.719 29.3281 294.633 26.7852Q292.547 24.2422 288.609 24.2422Q283.453 24.2422 280.734 28.7891L280.641 28.7891L280.641 24.8047L276.797 24.8047L276.797 48.8047L280.641 48.8047L280.641 35.1172Q280.641 31.8125 282.527 29.6445Q284.414 27.4766 287.297 27.4766Q292.875 27.4766 292.875 35.1172L292.875 48.8047ZM323.25 37.7656L306.305 37.7656Q306.398 41.7734 308.461 43.9531Q310.523 46.1328 314.133 46.1328Q318.188 46.1328 321.586 43.4609L321.586 47.0703Q318.422 49.3672 313.219 49.3672Q308.133 49.3672 305.227 46.0977Q302.32 42.8281 302.32 36.8984Q302.32 31.2969 305.496 27.7695Q308.672 24.2422 313.383 24.2422Q318.094 24.2422 320.672 27.2891Q323.25 30.3359 323.25 35.75L323.25 37.7656ZM327.609 43.8125L327.609 47.9375Q330.328 49.3672 334.031 49.3672Q335.906 49.3672 337.617 48.9453Q339.328 48.5234 340.641 47.6563Q341.953 46.7891 342.738 45.4766Q343.523 44.1641 343.523 42.3828Q343.523 40.9297 343.043 39.875Q342.563 38.8203 341.672 38.0117Q340.781 37.2031 339.516 36.5586Q338.25 35.9141 336.656 35.3047Q335.461 34.8359 334.523 34.4375Q333.586 34.0391 332.93 33.5469Q332.273 33.0547 331.934 32.4219Q331.594 31.7891 331.594 30.8516Q331.594 30.1016 331.934 29.4805Q332.273 28.8594 332.895 28.4141Q333.516 27.9688 334.383 27.7227Q335.25 27.4766 336.328 27.4766Q339.773 27.4766 342.422 29.2109L342.422 25.3203Q339.961 24.2422 336.844 24.2422Q335.086 24.2422 333.434 24.6875Q331.781 25.1328 330.492 26.0117Q329.203 26.8906 328.43 28.1914Q327.656 29.4922 327.656 31.1797Q327.656 32.5625 328.066 33.5938Q328.477 34.625 329.285 35.4336Q330.094 36.2422 331.301 36.8867Q332.508 37.5313 334.102 38.1641Q335.25 38.6094 336.246 39.0195Q337.242 39.4297 337.98 39.9453Q338.719 40.4609 339.152 41.1289Q339.586 41.7969 339.586 42.7578Q339.586 46.1328 334.523 46.1328Q330.75 46.1328 327.609 43.8125ZM347.977 47.9375L347.977 43.8125Q351.117 46.1328 354.891 46.1328Q359.953 46.1328 359.953 42.7578Q359.953 41.7969 359.52 41.1289Q359.086 40.4609 358.348 39.9453Q357.609 39.4297 356.613 39.0195Q355.617 38.6094 354.469 38.1641Q352.875 37.5313 351.668 36.8867Q350.461 36.2422 349.652 35.4336Q348.844 34.625 348.434 33.5938Q348.023 32.5625 348.023 31.1797Q348.023 29.4922 348.797 28.1914Q349.57 26.8906 350.859 26.0117Q352.148 25.1328 353.801 24.6875Q355.453 24.2422 357.211 24.2422Q360.328 24.2422 362.789 25.3203L362.789 29.2109Q360.141 27.4766 356.695 27.4766Q355.617 27.4766 354.75 27.7227Q353.883 27.9688 353.262 28.4141Q352.641 28.8594 352.301 29.4805Q351.961 30.1016 351.961 30.8516Q351.961 31.7891 352.301 32.4219Q352.641 33.0547 353.297 33.5469Q353.953 34.0391 354.891 34.4375Q355.828 34.8359 357.023 35.3047Q358.617 35.9141 359.883 36.5586Q361.148 37.2031 362.039 38.0117Q362.93 38.8203 363.41 39.875Q363.891 40.9297 363.891 42.3828Q363.891 44.1641 363.105 45.4766Q362.32 46.7891 361.008 47.6563Q359.695 48.5234 357.984 48.9453Q356.273 49.3672 354.398 49.3672Q350.695 49.3672 347.977 47.9375ZM49.1484 48.8047L52.9922 48.8047L52.9922 24.8047L49.1484 24.8047L49.1484 48.8047ZM31.3359 27.4766Q27.6328 27.4766 25.4766 29.9961Q23.3203 32.5156 23.3203 36.9453Q23.3203 41.2109 25.5 43.6719Q27.6797 46.1328 31.3359 46.1328Q35.0625 46.1328 37.0664 43.7188Q39.0703 41.3047 39.0703 36.8516Q39.0703 32.3516 37.0664 29.9141Q35.0625 27.4766 31.3359 27.4766ZM158.262 29.3281Q159.844 31.1797 159.867 34.5078L146.906 34.5078Q147.352 31.3672 149.25 29.4219Q151.148 27.4766 153.867 27.4766Q156.68 27.4766 158.262 29.3281ZM265.172 37.9531L265.172 34.4141Q265.172 31.5078 263.25 29.4922Q261.328 27.4766 258.375 27.4766Q254.859 27.4766 252.844 30.0547Q250.828 32.6328 250.828 37.1797Q250.828 41.3281 252.762 43.7305Q254.695 46.1328 257.953 46.1328Q261.164 46.1328 263.168 43.8125Q265.172 41.4922 265.172 37.9531ZM319.313 34.5078Q319.289 31.1797 317.707 29.3281Q316.125 27.4766 313.313 27.4766Q310.594 27.4766 308.695 29.4219Q306.797 31.3672 306.352 34.5078L319.313 34.5078ZM231.656 37.4609L237.445 36.6641L237.445 39.0547Q237.445 42.125 235.582 44.1289Q233.719 46.1328 230.859 46.1328Q228.773 46.1328 227.52 45.0195Q226.266 43.9063 226.266 42.1484Q226.266 39.7344 227.625 38.7852Q228.984 37.8359 231.656 37.4609ZM370.887 48.4766Q371.648 49.2266 372.727 49.2266Q373.781 49.2266 374.555 48.4766Q375.328 47.7266 375.328 46.6484Q375.328 45.5703 374.555 44.8086Q373.781 44.0469 372.727 44.0469Q371.648 44.0469 370.887 44.8086Q370.125 45.5703 370.125 46.6484Q370.125 47.7266 370.887 48.4766Z" />
    </g>
    <path d="M45 0L255.831 0Q256.984 0 258.129 0.0524588Q259.274 0.104918 260.409 0.209728Q261.543 0.314539 262.666 0.471487Q263.788 0.628435 264.896 0.837201Q266.004 1.04597 267.095 1.30613Q268.185 1.56628 269.257 1.8773Q270.329 2.18832 271.379 2.54957Q272.429 2.91081 273.456 3.32155Q274.483 3.73228 275.484 4.19167Q276.486 4.65106 277.459 5.15816Q278.433 5.66526 279.377 6.21904Q280.321 6.77282 281.233 7.37216Q282.146 7.97149 283.025 8.61515Q283.904 9.25881 284.748 9.94548Q285.592 10.6322 286.399 11.3604Q287.206 12.0887 287.974 12.8571Q288.743 13.6256 289.471 14.4325Q290.199 15.2395 290.886 16.0834Q291.572 16.9273 292.216 17.8064Q292.86 18.6855 293.459 19.5979Q294.059 20.5104 294.612 21.4544Q295.166 22.3985 295.673 23.3721Q296.18 24.3457 296.64 25.347Q297.099 26.3482 297.51 27.3751Q297.92 28.4019 298.282 29.4522Q298.643 30.5026 298.954 31.5742Q299.265 32.6459 299.525 33.7367Q299.785 34.8276 299.994 35.9353Q300.203 37.0431 300.36 38.1655Q300.517 39.288 300.622 40.4228Q300.726 41.5576 300.779 42.7025Q300.831 43.8474 300.831 45L300.831 45Q300.831 46.1526 300.779 47.2975Q300.726 48.4424 300.622 49.5772Q300.517 50.7121 300.36 51.8345Q300.203 52.9569 299.994 54.0647Q299.785 55.1725 299.525 56.2633Q299.265 57.3541 298.954 58.4258Q298.643 59.4975 298.282 60.5478Q297.92 61.5981 297.51 62.6249Q297.099 63.6518 296.64 64.653Q296.18 65.6543 295.673 66.6279Q295.166 67.6016 294.612 68.5456Q294.059 69.4896 293.459 70.4021Q292.86 71.3146 292.216 72.1936Q291.572 73.0727 290.886 73.9166Q290.199 74.7605 289.471 75.5675Q288.743 76.3745 287.974 77.1429Q287.206 77.9113 286.399 78.6396Q285.592 79.3679 284.748 80.0545Q283.904 80.7412 283.025 81.3849Q282.146 82.0285 281.233 82.6279Q280.321 83.2272 279.377 83.781Q278.433 84.3347 277.459 84.8419Q276.486 85.349 275.484 85.8083Q274.483 86.2677 273.456 86.6785Q272.429 87.0892 271.379 87.4504Q270.329 87.8117 269.257 88.1227Q268.185 88.4337 267.095 88.6939Q266.004 88.954 264.896 89.1628Q263.788 89.3716 262.666 89.5285Q261.543 89.6855 260.409 89.7903Q259.274 89.8951 258.129 89.9475Q256.984 90 255.831 90L45 90Q43.8474 90 42.7025 89.9476Q41.5576 89.8951 40.4228 89.7903Q39.288 89.6855 38.1655 89.5285Q37.0431 89.3716 35.9353 89.1628Q34.8276 88.954 33.7367 88.6939Q32.6459 88.4337 31.5742 88.1227Q30.5026 87.8117 29.4522 87.4504Q28.4019 87.0892 27.3751 86.6785Q26.3482 86.2677 25.347 85.8083Q24.3457 85.349 23.3721 84.8418Q22.3985 84.3347 21.4544 83.781Q20.5104 83.2272 19.5979 82.6278Q18.6855 82.0285 17.8064 81.3849Q16.9273 80.7412 16.0834 80.0545Q15.2395 79.3679 14.4325 78.6396Q13.6256 77.9113 12.8571 77.1429Q12.0887 76.3745 11.3604 75.5675Q10.6322 74.7605 9.94548 73.9166Q9.25881 73.0727 8.61515 72.1936Q7.97149 71.3146 7.37216 70.4021Q6.77282 69.4896 6.21904 68.5456Q5.66526 67.6016 5.15816 66.6279Q4.65106 65.6543 4.19167 64.653Q3.73228 63.6518 3.32155 62.6249Q2.91081 61.5981 2.54957 60.5478Q2.18832 59.4975 1.8773 58.4258Q1.56628 57.3541 1.30613 56.2633Q1.04597 55.1725 0.837201 54.0647Q0.628435 52.9569 0.471487 51.8345Q0.314539 50.7121 0.209728 49.5772Q0.104918 48.4424 0.0524588 47.2975Q0 46.1526 0 45L0 45Q0 43.8474 0.0524588 42.7025Q0.104918 41.5576 0.209728 40.4228Q0.314539 39.288 0.471487 38.1655Q0.628435 37.0431 0.837201 35.9353Q1.04597 34.8276 1.30613 33.7367Q1.56628 32.6459 1.8773 31.5742Q2.18832 30.5026 2.54957 29.4522Q2.91081 28.4019 3.32155 27.3751Q3.73228 26.3482 4.19167 25.347Q4.65106 24.3457 5.15816 23.3721Q5.66526 22.3985 6.21904 21.4544Q6.77282 20.5104 7.37216 19.5979Q7.97149 18.6855 8.61515 17.8064Q9.25881 16.9273 9.94548 16.0834Q10.6322 15.2395 11.3604 14.4325Q12.0887 13.6256 12.8571 12.8571Q13.6256 12.0887 14.4325 11.3604Q15.2395 10.6322 16.0834 9.94548Q16.9273 9.25881 17.8064 8.61515Q18.6855 7.97149 19.5979 7.37216Q20.5104 6.77282 21.4544 6.21904Q22.3985 5.66526 23.3721 5.15816Q24.3457 4.65106 25.347 4.19167Q26.3482 3.73228 27.3751 3.32155Q28.4019 2.91081 29.4522 2.54957Q30.5026 2.18832 31.5742 1.8773Q32.6459 1.56628 33.7367 1.30613Q34.8276 1.04597 35.9353 0.837201Q37.0431 0.628435 38.1655 0.471487Q39.288 0.314539 40.4228 0.209728Q41.5576 0.104918 42.7025 0.0524588Q43.8474 0 45 0Z" transform="translate(48.99988 760)" id="Rectangle" fill="#802BB1" fill-opacity="0.8980392" stroke="#808080" stroke-width="1" />
    <g id="Login" fill="#D1D7E0" transform="translate(138 773)">
      <path d="M84.8438 18.7109Q83.8125 18.7109 83.0859 18.0078Q82.3594 17.3047 82.3594 16.2266Q82.3594 15.1484 83.0859 14.4336Q83.8125 13.7188 84.8438 13.7188Q85.8984 13.7188 86.6367 14.4336Q87.375 15.1484 87.375 16.2266Q87.375 17.2578 86.6367 17.9844Q85.8984 18.7109 84.8438 18.7109ZM21.8438 48.8047L4.40625 48.8047L4.40625 15.1953L8.34375 15.1953L8.34375 45.2422L21.8438 45.2422L21.8438 48.8047ZM36.5156 49.3672Q31.1953 49.3672 28.0195 46.0039Q24.8438 42.6406 24.8438 37.0859Q24.8438 31.0391 28.1484 27.6406Q31.4531 24.2422 37.0781 24.2422Q42.4453 24.2422 45.457 27.5469Q48.4688 30.8516 48.4688 36.7109Q48.4688 42.4531 45.2227 45.9102Q41.9766 49.3672 36.5156 49.3672ZM62.4375 60.1016Q75.0938 60.1016 75.0938 46.8828L75.0938 24.8047L71.25 24.8047L71.25 28.1328L71.1563 28.1328Q68.8125 24.2422 63.9609 24.2422Q58.8516 24.2422 55.9102 27.8516Q52.9688 31.4609 52.9688 37.5781Q52.9688 42.9688 55.6992 46.168Q58.4297 49.3672 62.9063 49.3672Q68.4141 49.3672 71.1563 44.7734L71.25 44.7734L71.25 47.3984Q71.25 56.8203 62.3906 56.8203Q58.7109 56.8203 54.6563 54.5703L54.6563 58.4141Q57.9844 60.1016 62.4375 60.1016ZM110.578 48.8047L114.422 48.8047L114.422 34.1328Q114.422 29.3281 112.336 26.7852Q110.25 24.2422 106.313 24.2422Q101.156 24.2422 98.4375 28.7891L98.3438 28.7891L98.3438 24.8047L94.5 24.8047L94.5 48.8047L98.3438 48.8047L98.3438 35.1172Q98.3438 31.8125 100.23 29.6445Q102.117 27.4766 105 27.4766Q110.578 27.4766 110.578 35.1172L110.578 48.8047ZM86.7188 48.8047L82.875 48.8047L82.875 24.8047L86.7188 24.8047L86.7188 48.8047ZM36.7969 27.4766Q33.0938 27.4766 30.9375 29.9961Q28.7813 32.5156 28.7813 36.9453Q28.7813 41.2109 30.9609 43.6719Q33.1406 46.1328 36.7969 46.1328Q40.5234 46.1328 42.5273 43.7188Q44.5312 41.3047 44.5313 36.8516Q44.5312 32.3516 42.5273 29.9141Q40.5234 27.4766 36.7969 27.4766ZM71.25 34.4141L71.25 37.9531Q71.25 41.5391 69.2227 43.8359Q67.1953 46.1328 63.9609 46.1328Q60.7734 46.1328 58.8398 43.7305Q56.9063 41.3281 56.9063 37.3203Q56.9063 32.6563 58.9219 30.0664Q60.9375 27.4766 64.5 27.4766Q67.3828 27.4766 69.3164 29.5156Q71.25 31.5547 71.25 34.4141Z" />
    </g>
    <path d="M0 147C0 147 443.333 126.333 587 320C730.667 513.667 1080 560 1080 487C1080 414 1080 0 1080 0L0 0L0 147Z" transform="translate(0.0002441406 0)" id="New-shape" fill="url(#gradient_1)" stroke="#808080" stroke-width="1" />
    <g id="ROBOWARS-2k-19" fill="#CF60EA" transform="translate(48.00012 483)">
      <path d="M686.297 97.6094L668.531 97.6094L653.203 73.7969L653.016 73.7969L653.016 97.6094L638.203 97.6094L638.203 26.5469L653.016 26.5469L653.016 71.7813L653.203 71.7813L667.5 49.6094L685.078 49.6094L667.875 72.1563L686.297 97.6094ZM763.453 28.8906L763.453 97.6094L748.688 97.6094L748.688 45.5781Q747.469 46.6563 745.805 47.6172Q744.141 48.5781 742.266 49.3516Q740.391 50.125 738.375 50.6641Q736.359 51.2031 734.391 51.4375L734.391 38.9688Q740.156 37.2813 745.266 34.6563Q750.375 32.0313 754.5 28.8906L763.453 28.8906ZM98.7656 98.7813Q84.3281 98.7813 75.2344 89.3828Q66.1406 79.9844 66.1406 64.8906Q66.1406 48.9531 75.375 39.1094Q84.6094 29.2656 99.8438 29.2656Q114.234 29.2656 123.117 38.6875Q132 48.1094 132 63.5313Q132 79.375 122.789 89.0781Q113.578 98.7813 98.7656 98.7813ZM233.109 98.7813Q218.672 98.7813 209.578 89.3828Q200.484 79.9844 200.484 64.8906Q200.484 48.9531 209.719 39.1094Q218.953 29.2656 234.188 29.2656Q248.578 29.2656 257.461 38.6875Q266.344 48.1094 266.344 63.5313Q266.344 79.375 257.133 89.0781Q247.922 98.7813 233.109 98.7813ZM501.047 95.0313L501.047 80.0313Q505.125 83.4531 509.906 85.1641Q514.688 86.875 519.563 86.875Q522.422 86.875 524.555 86.3594Q526.688 85.8438 528.117 84.9297Q529.547 84.0156 530.25 82.7734Q530.953 81.5313 530.953 80.0781Q530.953 78.1094 529.828 76.5625Q528.703 75.0156 526.758 73.7031Q524.813 72.3906 522.141 71.1719Q519.469 69.9531 516.375 68.6875Q508.5 65.4063 504.633 60.6719Q500.766 55.9375 500.766 49.2344Q500.766 43.9844 502.875 40.2109Q504.984 36.4375 508.617 34Q512.25 31.5625 517.031 30.4141Q521.813 29.2656 527.156 29.2656Q532.406 29.2656 536.461 29.8984Q540.516 30.5313 543.938 31.8438L543.938 45.8594Q542.25 44.6875 540.258 43.7969Q538.266 42.9063 536.156 42.3203Q534.047 41.7344 531.961 41.4531Q529.875 41.1719 528 41.1719Q525.422 41.1719 523.313 41.6641Q521.203 42.1563 519.75 43.0469Q518.297 43.9375 517.5 45.1797Q516.703 46.4219 516.703 47.9688Q516.703 49.6563 517.594 50.9922Q518.484 52.3281 520.125 53.5234Q521.766 54.7188 524.109 55.8672Q526.453 57.0156 529.406 58.2344Q533.438 59.9219 536.648 61.8203Q539.859 63.7188 542.156 66.1094Q544.453 68.5 545.672 71.5703Q546.891 74.6406 546.891 78.7188Q546.891 84.3438 544.758 88.1641Q542.625 91.9844 538.969 94.3516Q535.313 96.7188 530.461 97.75Q525.609 98.7813 520.219 98.7813Q514.688 98.7813 509.695 97.8438Q504.703 96.9063 501.047 95.0313ZM625.359 85.3281L596.859 85.3281Q596.859 84.0156 597.797 82.5625Q598.734 81.1094 600.328 79.5859Q601.922 78.0625 604.008 76.4922Q606.094 74.9219 608.344 73.3281Q611.672 71.0313 614.766 68.5703Q617.859 66.1094 620.227 63.1563Q622.594 60.2031 624.023 56.5938Q625.453 52.9844 625.453 48.3438Q625.453 43.9844 623.977 40.4453Q622.5 36.9063 619.688 34.4219Q616.875 31.9375 612.82 30.6016Q608.766 29.2656 603.656 29.2656Q592.641 29.2656 583.875 34.9375L583.875 47.9688Q591.797 41.0781 600.469 41.0781Q605.484 41.0781 607.922 43.2813Q610.359 45.4844 610.359 49.7969Q610.359 52 609.609 53.9453Q608.859 55.8906 607.336 57.7891Q605.813 59.6875 603.586 61.6094Q601.359 63.5313 598.406 65.6406Q595.594 67.6563 592.477 70.1641Q589.359 72.6719 586.734 75.9297Q584.109 79.1875 582.375 83.2891Q580.641 87.3906 580.641 92.5469L580.641 97.6094L625.359 97.6094L625.359 85.3281ZM828.656 76.7734Q830.625 69.7188 830.625 60.7656Q830.625 53.3125 829.008 47.4531Q827.391 41.5938 824.32 37.5625Q821.25 33.5313 816.891 31.3984Q812.531 29.2656 807.047 29.2656Q801.75 29.2656 797.391 30.9766Q793.031 32.6875 789.914 35.8281Q786.797 38.9688 785.063 43.3281Q783.328 47.6875 783.328 52.9844Q783.328 57.5313 784.758 61.3281Q786.188 65.125 788.742 67.8672Q791.297 70.6094 794.789 72.1563Q798.281 73.7031 802.406 73.7031Q811.5 73.7031 815.953 67.0938L816.234 67.1875Q816.188 77.0313 811.875 82.2344Q807.563 87.4375 799.922 87.4375Q792.469 87.4375 787.172 83.9688L787.172 96.1563Q793.125 98.7813 801.375 98.7813Q808.266 98.7813 813.703 96.1797Q819.141 93.5781 822.914 88.7031Q826.688 83.8281 828.656 76.7734ZM64.0781 97.6094L46.6875 97.6094L36.2344 80.3125Q35.0625 78.3438 33.9844 76.7969Q32.9062 75.25 31.8047 74.1484Q30.7031 73.0469 29.5078 72.4609Q28.3125 71.875 26.9063 71.875L22.8281 71.875L22.8281 97.6094L7.6875 97.6094L7.6875 30.3906L31.6875 30.3906Q56.1563 30.3906 56.1563 48.6719Q56.1563 52.1875 55.0781 55.1641Q54 58.1406 52.0313 60.5313Q50.0625 62.9219 47.2734 64.6563Q44.4844 66.3906 41.0625 67.375L41.0625 67.5625Q42.5625 68.0313 43.9688 69.0859Q45.375 70.1406 46.6875 71.5469Q48 72.9531 49.1953 74.5703Q50.3906 76.1875 51.375 77.7344L64.0781 97.6094ZM143.156 30.3906L143.156 97.6094L168.984 97.6094Q180.422 97.6094 187.031 92.1953Q193.641 86.7813 193.641 77.5469Q193.641 71.2188 189.352 66.8125Q185.063 62.4063 177.891 61.5156L177.891 61.3281Q183.609 59.7344 187.289 55.6563Q190.969 51.5781 190.969 46.1406Q190.969 38.6406 184.922 34.5156Q178.875 30.3906 167.625 30.3906L143.156 30.3906ZM347.672 97.6094L365.438 30.3906L350.156 30.3906L340.875 75.25Q340.078 79.0469 339.891 82.75L339.703 82.75Q339.234 78.0156 338.625 75.5313L327.609 30.3906L311.391 30.3906L299.203 74.9688Q298.031 79.2344 297.844 82.8438L297.563 82.8438Q297.281 78.0156 296.672 75.1563L287.203 30.3906L270.656 30.3906L288.328 97.6094L305.813 97.6094L317.25 54.4844Q318.047 51.5313 318.469 46.9375L318.656 46.9375Q318.844 51.1094 319.734 54.4844L330.891 97.6094L347.672 97.6094ZM433.078 97.6094L416.578 97.6094L411.797 82.6563L387.891 82.6563L383.156 97.6094L366.75 97.6094L391.219 30.3906L409.172 30.3906L433.078 97.6094ZM480.469 97.6094L497.859 97.6094L485.156 77.7344Q484.172 76.1875 482.977 74.5703Q481.781 72.9531 480.469 71.5469Q479.156 70.1406 477.75 69.0859Q476.344 68.0313 474.844 67.5625L474.844 67.375Q478.266 66.3906 481.055 64.6563Q483.844 62.9219 485.813 60.5313Q487.781 58.1406 488.859 55.1641Q489.938 52.1875 489.938 48.6719Q489.938 30.3906 465.469 30.3906L441.469 30.3906L441.469 97.6094L456.609 97.6094L456.609 71.875L460.688 71.875Q462.094 71.875 463.289 72.4609Q464.484 73.0469 465.586 74.1484Q466.688 75.25 467.766 76.7969Q468.844 78.3438 470.016 80.3125L480.469 97.6094ZM815.016 48.0391Q815.672 50.3125 815.672 52.8906Q815.672 54.9531 815.039 56.7344Q814.406 58.5156 813.258 59.8281Q812.109 61.1406 810.516 61.9141Q808.922 62.6875 806.953 62.6875Q804.891 62.6875 803.203 61.9609Q801.516 61.2344 800.32 59.8281Q799.125 58.4219 798.469 56.3828Q797.813 54.3438 797.813 51.7188Q797.813 49.3281 798.469 47.2656Q799.125 45.2031 800.297 43.7266Q801.469 42.25 803.086 41.4063Q804.703 40.5625 806.625 40.5625Q808.641 40.5625 810.328 41.5234Q812.016 42.4844 813.188 44.125Q814.359 45.7656 815.016 48.0391ZM158.297 57.4844L158.297 41.5469L163.969 41.5469Q175.031 41.5469 175.031 48.9531Q175.031 52.9375 172.336 55.2109Q169.641 57.4844 164.953 57.4844L158.297 57.4844ZM22.8281 41.7344L22.8281 60.4375L29.3906 60.4375Q34.2656 60.4375 37.2188 57.625Q40.2187 54.7656 40.2188 50.5469Q40.2187 41.7344 29.6719 41.7344L22.8281 41.7344ZM456.609 60.4375L456.609 41.7344L463.453 41.7344Q474 41.7344 474 50.5469Q474 54.7656 471 57.625Q468.047 60.4375 463.172 60.4375L456.609 60.4375ZM99.4219 42.2969Q91.4531 42.2969 86.7656 48.2734Q82.0781 54.25 82.0781 64.0938Q82.0781 74.0781 86.7656 79.8906Q91.4531 85.7031 99.0469 85.7031Q106.875 85.7031 111.469 80.0547Q116.062 74.4063 116.063 64.375Q116.063 53.9219 111.609 48.1094Q107.156 42.2969 99.4219 42.2969ZM233.766 42.2969Q225.797 42.2969 221.109 48.2734Q216.422 54.25 216.422 64.0938Q216.422 74.0781 221.109 79.8906Q225.797 85.7031 233.391 85.7031Q241.219 85.7031 245.813 80.0547Q250.406 74.4063 250.406 64.375Q250.406 53.9219 245.953 48.1094Q241.5 42.2969 233.766 42.2969ZM408.328 71.0313L401.109 48.4375Q400.313 45.9063 399.984 42.3906L399.609 42.3906Q399.375 45.3438 398.438 48.25L391.125 71.0313L408.328 71.0313ZM692.344 77.1719L717.984 77.1719L717.984 66.8125L692.344 66.8125L692.344 77.1719ZM158.297 86.4531L158.297 68.7344L166.594 68.7344Q171.844 68.7344 174.773 71.0313Q177.703 73.3281 177.703 77.3594Q177.703 81.5781 174.727 84.0156Q171.75 86.4531 166.5 86.4531L158.297 86.4531Z" />
    </g>
    <path d="M0 0C0 47 335.642 146.967 427.5 442.5C519.358 738.033 796.32 724.028 892 723L1080 721L1080 777L0 777C0 777 0 -47 0 0Z" transform="translate(0 1383)" id="New-shape" fill="url(#gradient_2)" stroke="#808080" stroke-width="1" />
    <g id="Haven't-registered-yet?-Regist" transform="translate(48 2064)">
      <g id="Haven't-registered-yet?">
        <path d="M379.945 48.8047L383.789 48.8047L383.789 13.2734L379.945 13.2734L379.945 28.1328L379.852 28.1328Q377.602 24.2422 372.656 24.2422Q367.664 24.2422 364.664 27.8281Q361.664 31.4141 361.664 37.3672Q361.664 42.9219 364.371 46.1445Q367.078 49.3672 371.602 49.3672Q377.18 49.3672 379.852 44.7266L379.945 44.7266L379.945 48.8047ZM248.367 18.0078Q249.094 18.7109 250.125 18.7109Q251.18 18.7109 251.918 17.9844Q252.656 17.2578 252.656 16.2266Q252.656 15.1484 251.918 14.4336Q251.18 13.7188 250.125 13.7188Q249.094 13.7188 248.367 14.4336Q247.641 15.1484 247.641 16.2266Q247.641 17.3047 248.367 18.0078ZM472.898 37.8945Q473.063 38.8672 473.273 39.4766L477.047 39.4766Q476.789 38.8672 476.531 37.9883Q476.273 37.1094 476.273 36.0313Q476.273 34.7656 476.883 33.7109Q477.492 32.6563 478.418 31.6836Q479.344 30.7109 480.422 29.7266Q481.5 28.7422 482.426 27.6055Q483.352 26.4688 483.961 25.1094Q484.57 23.75 484.57 22.0156Q484.57 20.1875 483.891 18.8047Q483.211 17.4219 482.027 16.4961Q480.844 15.5703 479.273 15.1016Q477.703 14.6328 475.922 14.6328Q472.078 14.6328 468.492 16.8828L468.492 21.0078Q471.398 17.8906 475.359 17.8906Q476.461 17.8906 477.445 18.1836Q478.43 18.4766 479.18 19.0625Q479.93 19.6484 480.363 20.5156Q480.797 21.3828 480.797 22.5078Q480.797 23.8203 480.199 24.9102Q479.602 26 478.711 26.9961Q477.82 27.9922 476.766 28.9648Q475.711 29.9375 474.82 30.9922Q473.93 32.0469 473.332 33.2539Q472.734 34.4609 472.734 35.9609Q472.734 36.9219 472.898 37.8945ZM29.6719 48.8047L25.7344 48.8047L25.7344 33.4766L8.34375 33.4766L8.34375 48.8047L4.40625 48.8047L4.40625 15.1953L8.34375 15.1953L8.34375 29.9375L25.7344 29.9375L25.7344 15.1953L29.6719 15.1953L29.6719 48.8047ZM140.977 15.1953L140.977 25.6719L137.578 25.6719L137.578 15.1953L140.977 15.1953ZM156.234 49.3203Q158.461 49.3203 159.82 48.5703L159.82 45.2891Q158.766 46.0859 157.313 46.0859Q155.414 46.0859 154.594 45.0547Q153.773 44.0234 153.773 41.6094L153.773 28.0859L159.82 28.0859L159.82 24.8047L153.773 24.8047L153.773 17.7031L149.93 18.9453L149.93 24.8047L145.805 24.8047L145.805 28.0859L149.93 28.0859L149.93 42.2891Q149.93 49.3203 156.234 49.3203ZM287.695 49.3203Q289.922 49.3203 291.281 48.5703L291.281 45.2891Q290.227 46.0859 288.773 46.0859Q286.875 46.0859 286.055 45.0547Q285.234 44.0234 285.234 41.6094L285.234 28.0859L291.281 28.0859L291.281 24.8047L285.234 24.8047L285.234 17.7031L281.391 18.9453L281.391 24.8047L277.266 24.8047L277.266 28.0859L281.391 28.0859L281.391 42.2891Q281.391 49.3203 287.695 49.3203ZM464.18 48.5703Q462.82 49.3203 460.594 49.3203Q454.289 49.3203 454.289 42.2891L454.289 28.0859L450.164 28.0859L450.164 24.8047L454.289 24.8047L454.289 18.9453L458.133 17.7031L458.133 24.8047L464.18 24.8047L464.18 28.0859L458.133 28.0859L458.133 41.6094Q458.133 44.0234 458.953 45.0547Q459.773 46.0859 461.672 46.0859Q463.125 46.0859 464.18 45.2891L464.18 48.5703ZM55.1484 48.8047L51.3047 48.8047L51.3047 45.0547L51.2109 45.0547Q48.7031 49.3672 43.8281 49.3672Q40.2422 49.3672 38.2148 47.4688Q36.1875 45.5703 36.1875 42.4297Q36.1875 35.7031 44.1094 34.6016L51.3047 33.5938Q51.3047 27.4766 46.3594 27.4766Q42.0234 27.4766 38.5313 30.4297L38.5313 26.4922Q42.0703 24.2422 46.6875 24.2422Q55.1484 24.2422 55.1484 33.1953L55.1484 48.8047ZM104.672 37.7656L87.7266 37.7656Q87.8203 41.7734 89.8828 43.9531Q91.9453 46.1328 95.5547 46.1328Q99.6094 46.1328 103.008 43.4609L103.008 47.0703Q99.8438 49.3672 94.6406 49.3672Q89.5547 49.3672 86.6484 46.0977Q83.7422 42.8281 83.7422 36.8984Q83.7422 31.2969 86.918 27.7695Q90.0938 24.2422 94.8047 24.2422Q99.5156 24.2422 102.094 27.2891Q104.672 30.3359 104.672 35.75L104.672 37.7656ZM126.563 48.8047L130.406 48.8047L130.406 34.1328Q130.406 29.3281 128.32 26.7852Q126.234 24.2422 122.297 24.2422Q117.141 24.2422 114.422 28.7891L114.328 28.7891L114.328 24.8047L110.484 24.8047L110.484 48.8047L114.328 48.8047L114.328 35.1172Q114.328 31.8125 116.215 29.6445Q118.102 27.4766 120.984 27.4766Q126.563 27.4766 126.563 35.1172L126.563 48.8047ZM197.133 37.7656L214.078 37.7656L214.078 35.75Q214.078 30.3359 211.5 27.2891Q208.922 24.2422 204.211 24.2422Q199.5 24.2422 196.324 27.7695Q193.148 31.2969 193.148 36.8984Q193.148 42.8281 196.055 46.0977Q198.961 49.3672 204.047 49.3672Q209.25 49.3672 212.414 47.0703L212.414 43.4609Q209.016 46.1328 204.961 46.1328Q201.352 46.1328 199.289 43.9531Q197.227 41.7734 197.133 37.7656ZM240.375 46.8828Q240.375 60.1016 227.719 60.1016Q223.266 60.1016 219.938 58.4141L219.938 54.5703Q223.992 56.8203 227.672 56.8203Q236.531 56.8203 236.531 47.3984L236.531 44.7734L236.438 44.7734Q233.695 49.3672 228.188 49.3672Q223.711 49.3672 220.98 46.168Q218.25 42.9688 218.25 37.5781Q218.25 31.4609 221.191 27.8516Q224.133 24.2422 229.242 24.2422Q234.094 24.2422 236.438 28.1328L236.531 28.1328L236.531 24.8047L240.375 24.8047L240.375 46.8828ZM258.328 47.9375L258.328 43.8125Q261.469 46.1328 265.242 46.1328Q270.305 46.1328 270.305 42.7578Q270.305 41.7969 269.871 41.1289Q269.438 40.4609 268.699 39.9453Q267.961 39.4297 266.965 39.0195Q265.969 38.6094 264.82 38.1641Q263.227 37.5313 262.02 36.8867Q260.813 36.2422 260.004 35.4336Q259.195 34.625 258.785 33.5938Q258.375 32.5625 258.375 31.1797Q258.375 29.4922 259.148 28.1914Q259.922 26.8906 261.211 26.0117Q262.5 25.1328 264.152 24.6875Q265.805 24.2422 267.563 24.2422Q270.68 24.2422 273.141 25.3203L273.141 29.2109Q270.492 27.4766 267.047 27.4766Q265.969 27.4766 265.102 27.7227Q264.234 27.9688 263.613 28.4141Q262.992 28.8594 262.652 29.4805Q262.313 30.1016 262.313 30.8516Q262.313 31.7891 262.652 32.4219Q262.992 33.0547 263.648 33.5469Q264.305 34.0391 265.242 34.4375Q266.18 34.8359 267.375 35.3047Q268.969 35.9141 270.234 36.5586Q271.5 37.2031 272.391 38.0117Q273.281 38.8203 273.762 39.875Q274.242 40.9297 274.242 42.3828Q274.242 44.1641 273.457 45.4766Q272.672 46.7891 271.359 47.6563Q270.047 48.5234 268.336 48.9453Q266.625 49.3672 264.75 49.3672Q261.047 49.3672 258.328 47.9375ZM315.703 37.7656L298.758 37.7656Q298.852 41.7734 300.914 43.9531Q302.977 46.1328 306.586 46.1328Q310.641 46.1328 314.039 43.4609L314.039 47.0703Q310.875 49.3672 305.672 49.3672Q300.586 49.3672 297.68 46.0977Q294.773 42.8281 294.773 36.8984Q294.773 31.2969 297.949 27.7695Q301.125 24.2422 305.836 24.2422Q310.547 24.2422 313.125 27.2891Q315.703 30.3359 315.703 35.75L315.703 37.7656ZM357.492 37.7656L340.547 37.7656Q340.641 41.7734 342.703 43.9531Q344.766 46.1328 348.375 46.1328Q352.43 46.1328 355.828 43.4609L355.828 47.0703Q352.664 49.3672 347.461 49.3672Q342.375 49.3672 339.469 46.0977Q336.563 42.8281 336.563 36.8984Q336.563 31.2969 339.738 27.7695Q342.914 24.2422 347.625 24.2422Q352.336 24.2422 354.914 27.2891Q357.492 30.3359 357.492 35.75L357.492 37.7656ZM430.289 37.7656L447.234 37.7656L447.234 35.75Q447.234 30.3359 444.656 27.2891Q442.078 24.2422 437.367 24.2422Q432.656 24.2422 429.48 27.7695Q426.305 31.2969 426.305 36.8984Q426.305 42.8281 429.211 46.0977Q432.117 49.3672 437.203 49.3672Q442.406 49.3672 445.57 47.0703L445.57 43.4609Q442.172 46.1328 438.117 46.1328Q434.508 46.1328 432.445 43.9531Q430.383 41.7734 430.289 37.7656ZM190.617 28.6953Q189.609 27.9219 187.711 27.9219Q185.25 27.9219 183.598 30.2422Q181.945 32.5625 181.945 36.5703L181.945 48.8047L178.102 48.8047L178.102 24.8047L181.945 24.8047L181.945 29.75L182.039 29.75Q182.859 27.2188 184.547 25.8008Q186.234 24.3828 188.32 24.3828Q189.82 24.3828 190.617 24.7109L190.617 28.6953ZM331.125 27.9219Q333.023 27.9219 334.031 28.6953L334.031 24.7109Q333.234 24.3828 331.734 24.3828Q329.648 24.3828 327.961 25.8008Q326.273 27.2188 325.453 29.75L325.359 29.75L325.359 24.8047L321.516 24.8047L321.516 48.8047L325.359 48.8047L325.359 36.5703Q325.359 32.5625 327.012 30.2422Q328.664 27.9219 331.125 27.9219ZM71.6953 48.8047L81.2578 24.8047L77.2031 24.8047L70.8281 42.3359Q70.3125 43.7891 70.0781 45.5938L69.9844 45.5938Q69.8203 44.1641 69.1406 42.2422L63.0469 24.8047L58.8281 24.8047L67.9219 48.8047L71.6953 48.8047ZM248.156 48.8047L252 48.8047L252 24.8047L248.156 24.8047L248.156 48.8047ZM423.82 24.8047L412.781 52.6484Q409.828 60.1016 404.484 60.1016Q402.984 60.1016 401.977 59.7969L401.977 56.3516Q403.219 56.7734 404.25 56.7734Q407.156 56.7734 408.609 53.3047L410.531 48.7578L401.156 24.8047L405.422 24.8047L411.914 43.2734Q412.031 43.625 412.406 45.1016L412.547 45.1016Q412.664 44.5391 413.016 43.3203L419.836 24.8047L423.82 24.8047ZM100.734 34.5078Q100.711 31.1797 99.1289 29.3281Q97.5469 27.4766 94.7344 27.4766Q92.0156 27.4766 90.1172 29.4219Q88.2188 31.3672 87.7734 34.5078L100.734 34.5078ZM208.535 29.3281Q210.117 31.1797 210.141 34.5078L197.18 34.5078Q197.625 31.3672 199.523 29.4219Q201.422 27.4766 204.141 27.4766Q206.953 27.4766 208.535 29.3281ZM236.531 37.9531L236.531 34.4141Q236.531 31.5547 234.598 29.5156Q232.664 27.4766 229.781 27.4766Q226.219 27.4766 224.203 30.0664Q222.188 32.6563 222.188 37.3203Q222.188 41.3281 224.121 43.7305Q226.055 46.1328 229.242 46.1328Q232.477 46.1328 234.504 43.8359Q236.531 41.5391 236.531 37.9531ZM311.766 34.5078Q311.742 31.1797 310.16 29.3281Q308.578 27.4766 305.766 27.4766Q303.047 27.4766 301.148 29.4219Q299.25 31.3672 298.805 34.5078L311.766 34.5078ZM353.555 34.5078Q353.531 31.1797 351.949 29.3281Q350.367 27.4766 347.555 27.4766Q344.836 27.4766 342.938 29.4219Q341.039 31.3672 340.594 34.5078L353.555 34.5078ZM379.945 34.4141L379.945 37.9531Q379.945 41.4922 377.941 43.8125Q375.938 46.1328 372.727 46.1328Q369.469 46.1328 367.535 43.7305Q365.602 41.3281 365.602 37.1797Q365.602 32.6328 367.617 30.0547Q369.633 27.4766 373.148 27.4766Q376.102 27.4766 378.023 29.4922Q379.945 31.5078 379.945 34.4141ZM441.691 29.3281Q443.273 31.1797 443.297 34.5078L430.336 34.5078Q430.781 31.3672 432.68 29.4219Q434.578 27.4766 437.297 27.4766Q440.109 27.4766 441.691 29.3281ZM51.3047 36.6641L45.5156 37.4609Q42.8438 37.8359 41.4844 38.7852Q40.125 39.7344 40.125 42.1484Q40.125 43.9063 41.3789 45.0195Q42.6328 46.1328 44.7188 46.1328Q47.5781 46.1328 49.4414 44.1289Q51.3047 42.125 51.3047 39.0547L51.3047 36.6641ZM473.555 48.4766Q474.352 49.2266 475.383 49.2266Q476.414 49.2266 477.211 48.4766Q477.984 47.7266 477.984 46.6484Q477.984 45.5469 477.211 44.8203Q476.438 44.0469 475.383 44.0469Q474.328 44.0469 473.555 44.8203Q472.781 45.5469 472.781 46.6484Q472.781 47.7266 473.555 48.4766Z" />
      </g>
      <g id="Register" fill="#303030">
        <path d="M591 19.8945Q592.195 21.0078 594.07 21.0078Q595.969 21.0078 597.152 19.9297Q598.336 18.8516 598.336 17.1641Q598.336 15.5 597.152 14.4453Q595.969 13.3906 594.07 13.3906Q592.195 13.3906 591 14.4453Q589.805 15.5 589.805 17.1641Q589.805 18.7813 591 19.8945ZM523.523 48.8047L532.219 48.8047L525.867 38.8672Q525.375 38.0938 524.777 37.2852Q524.18 36.4766 523.523 35.7734Q522.867 35.0703 522.164 34.543Q521.461 34.0156 520.711 33.7813L520.711 33.6875Q522.422 33.1953 523.816 32.3281Q525.211 31.4609 526.195 30.2656Q527.18 29.0703 527.719 27.582Q528.258 26.0938 528.258 24.3359Q528.258 15.1953 516.023 15.1953L504.023 15.1953L504.023 48.8047L511.594 48.8047L511.594 35.9375L513.633 35.9375Q514.336 35.9375 514.934 36.2305Q515.531 36.5234 516.082 37.0742Q516.633 37.625 517.172 38.3984Q517.711 39.1719 518.297 40.1563L523.523 48.8047ZM634.641 49.3906Q637.945 49.3906 639.586 48.5234L639.586 43.0391Q638.344 43.7188 637.172 43.7188Q634.195 43.7188 634.195 39.9688L634.195 30.2656L639.586 30.2656L639.586 24.8047L634.195 24.8047L634.195 17.5156L626.813 19.625L626.813 24.8047L622.922 24.8047L622.922 30.2656L626.813 30.2656L626.813 41.2578Q626.813 49.3906 634.641 49.3906ZM511.594 30.2188L511.594 20.8672L515.016 20.8672Q520.289 20.8672 520.289 25.2734Q520.289 27.3828 518.789 28.8125Q517.313 30.2188 514.875 30.2188L511.594 30.2188ZM540.539 38.9141L556.195 38.9141L556.195 35.7969Q556.195 30.4531 553.324 27.3359Q550.453 24.2188 545.203 24.2188Q540.141 24.2188 536.672 27.7109Q533.203 31.2031 533.203 37.1797Q533.203 42.9453 536.414 46.168Q539.625 49.3906 545.438 49.3906Q550.758 49.3906 554.086 47.6094L554.086 42.2656Q551.086 44.1406 547.125 44.1406Q540.914 44.1406 540.539 38.9141ZM584.133 46.0625Q584.133 52.7422 580.266 56.4102Q576.398 60.0781 569.063 60.0781Q564.211 60.0781 561.375 58.6953L561.375 52.4609Q565.078 54.6172 568.852 54.6172Q572.602 54.6172 574.664 52.6367Q576.727 50.6563 576.727 47.2578L576.727 45.3594L576.633 45.3594Q574.102 49.3906 569.156 49.3906Q564.563 49.3906 561.867 46.1563Q559.172 42.9219 559.172 37.4844Q559.172 31.3906 562.172 27.8047Q565.172 24.2188 570.07 24.2188Q574.453 24.2188 576.633 27.5938L576.727 27.5938L576.727 24.8047L584.133 24.8047L584.133 46.0625ZM602.391 48.1719L602.391 42.1719Q604.219 43.2734 606.035 43.8125Q607.852 44.3516 609.469 44.3516Q611.438 44.3516 612.574 43.8125Q613.711 43.2734 613.711 42.1719Q613.711 41.4688 613.195 41Q612.68 40.5313 611.871 40.1797Q611.063 39.8281 610.102 39.5469Q609.141 39.2656 608.25 38.9141Q606.82 38.375 605.73 37.7539Q604.641 37.1328 603.902 36.3125Q603.164 35.4922 602.777 34.4141Q602.391 33.3359 602.391 31.8594Q602.391 29.8438 603.27 28.3906Q604.148 26.9375 605.613 26.0117Q607.078 25.0859 608.965 24.6523Q610.852 24.2188 612.891 24.2188Q614.484 24.2188 616.125 24.4648Q617.766 24.7109 619.359 25.1797L619.359 30.8984Q617.953 30.0781 616.348 29.668Q614.742 29.2578 613.195 29.2578Q612.469 29.2578 611.824 29.3867Q611.18 29.5156 610.688 29.7617Q610.195 30.0078 609.914 30.3945Q609.633 30.7813 609.633 31.2734Q609.633 31.9297 610.055 32.3984Q610.477 32.8672 611.156 33.207Q611.836 33.5469 612.668 33.8164Q613.5 34.0859 614.32 34.3672Q615.797 34.8828 616.992 35.4922Q618.188 36.1016 619.043 36.9219Q619.898 37.7422 620.355 38.8438Q620.813 39.9453 620.813 41.4688Q620.813 43.6016 619.887 45.1133Q618.961 46.625 617.426 47.5742Q615.891 48.5234 613.887 48.957Q611.883 49.3906 609.727 49.3906Q605.766 49.3906 602.391 48.1719ZM665.32 38.9141L649.664 38.9141Q650.039 44.1406 656.25 44.1406Q660.211 44.1406 663.211 42.2656L663.211 47.6094Q659.883 49.3906 654.563 49.3906Q648.75 49.3906 645.539 46.168Q642.328 42.9453 642.328 37.1797Q642.328 31.2031 645.797 27.7109Q649.266 24.2188 654.328 24.2188Q659.578 24.2188 662.449 27.3359Q665.32 30.4531 665.32 35.7969L665.32 38.9141ZM682.266 30.7578Q684.047 30.7578 685.383 31.4844L685.383 24.6641Q684.727 24.3828 683.555 24.3828Q678.984 24.3828 677.227 29.2578L677.133 29.2578L677.133 24.8047L669.727 24.8047L669.727 48.8047L677.133 48.8047L677.133 37.3438Q677.133 34.2969 678.492 32.5273Q679.852 30.7578 682.266 30.7578ZM590.32 48.8047L597.727 48.8047L597.727 24.8047L590.32 24.8047L590.32 48.8047ZM545.156 29.2109Q549.328 29.2109 549.328 34.3672L540.492 34.3672Q540.773 32.1641 542.074 30.6875Q543.375 29.2109 545.156 29.2109ZM658.453 34.3672Q658.453 29.2109 654.281 29.2109Q652.5 29.2109 651.199 30.6875Q649.898 32.1641 649.617 34.3672L658.453 34.3672ZM576.82 37.2734L576.82 35.375Q576.82 33.1016 575.473 31.4961Q574.125 29.8906 571.969 29.8906Q569.508 29.8906 568.102 31.8125Q566.695 33.7344 566.695 37.2266Q566.695 40.2266 568.031 41.9727Q569.367 43.7188 571.688 43.7188Q573.984 43.7188 575.402 41.9492Q576.82 40.1797 576.82 37.2734Z" />
      </g>
      <g id=".">
        <path d="M692.133 49.3906Q690.305 49.3906 689.086 48.2656Q687.867 47.1406 687.867 45.5Q687.867 43.8125 689.121 42.7344Q690.375 41.6563 692.25 41.6563Q694.148 41.6563 695.355 42.7461Q696.563 43.8359 696.563 45.5Q696.563 47.2109 695.332 48.3008Q694.102 49.3906 692.133 49.3906Z" />
      </g>
    </g>
  </g>
</svg>